<svg width="25" height="20" viewBox="0 0 25 20" fill="none" xmlns="http://www.w3.org/2000/svg">
<path d="M9.375 8.75L8.1875 11.3125L5.625 12.5L8.1875 13.6875L9.375 16.25L10.5625 13.6875L13.125 12.5L10.5625 11.3125L9.375 8.75V8.75M16.875 8.75L16.0625 10.4375L14.375 11.25L16.0625 12.0625L16.875 13.75L17.6875 12.0625L19.375 11.25L17.6875 10.4375L16.875 8.75V8.75M2.5 0L5 5H8.75L6.25 0H8.75L11.25 5H15L12.5 0H15L17.5 5H21.25L18.75 0H22.5C23.1875 0 23.776 0.244792 24.2656 0.734375C24.7552 1.22396 25 1.8125 25 2.5V17.5C25 18.1875 24.7552 18.776 24.2656 19.2656C23.776 19.7552 23.1875 20 22.5 20H2.5C1.8125 20 1.22396 19.7552 0.734375 19.2656C0.244792 18.776 0 18.1875 0 17.5V2.5C0 1.8125 0.244792 1.22396 0.734375 0.734375C1.22396 0.244792 1.8125 0 2.5 0V0V0M2.5 7.5V17.5V17.5V17.5H22.5V17.5V17.5V7.5H2.5V7.5M2.5 7.5V7.5V17.5V17.5V17.5V17.5V17.5V17.5V7.5V7.5" fill="#7F13EC"/>
</svg>
