<svg width="75" height="75" viewBox="0 0 75 75" fill="none" xmlns="http://www.w3.org/2000/svg">
<rect width="74.0935" height="74.1411" rx="37.0467" fill="#7F13EC" fill-opacity="0.2"/>
<rect x="0.5" y="0.5" width="73.0935" height="73.1411" rx="36.5467" stroke="#7F13EC" stroke-opacity="0.3"/>
<path d="M24.2 32.9911L28.1 34.6411C28.5667 33.7078 29.05 32.8078 29.55 31.9411C30.05 31.0745 30.6 30.2078 31.2 29.3411L28.4 28.7911V28.7911V28.7911L24.2 32.9911V32.9911M31.3 37.1411L37 42.7911C38.4 42.2578 39.9 41.4411 41.5 40.3411C43.1 39.2411 44.6 37.9911 46 36.5911C48.3333 34.2578 50.1583 31.6661 51.475 28.8161C52.7917 25.9661 53.3667 23.3411 53.2 20.9411C50.8 20.7745 48.1667 21.3495 45.3 22.6661C42.4333 23.9828 39.8333 25.8078 37.5 28.1411C36.1 29.5411 34.85 31.0411 33.75 32.6411C32.65 34.2411 31.8333 35.7411 31.3 37.1411V37.1411M40.2 33.8911C39.4333 33.1245 39.05 32.1828 39.05 31.0661C39.05 29.9495 39.4333 29.0078 40.2 28.2411C40.9667 27.4745 41.9167 27.0911 43.05 27.0911C44.1833 27.0911 45.1333 27.4745 45.9 28.2411C46.6667 29.0078 47.05 29.9495 47.05 31.0661C47.05 32.1828 46.6667 33.1245 45.9 33.8911C45.1333 34.6578 44.1833 35.0411 43.05 35.0411C41.9167 35.0411 40.9667 34.6578 40.2 33.8911V33.8911M41.15 49.9411L45.35 45.7411V45.7411V45.7411L44.8 42.9411C43.9333 43.5411 43.0667 44.0828 42.2 44.5661C41.3333 45.0495 40.4333 45.5245 39.5 45.9911L41.15 49.9411V49.9411M56.8 17.2911C57.4333 21.3245 57.0417 25.2495 55.625 29.0661C54.2083 32.8828 51.7667 36.5245 48.3 39.9911V39.9911V39.9911L49.3 44.9411C49.4333 45.6078 49.4 46.2578 49.2 46.8911C49 47.5245 48.6667 48.0745 48.2 48.5411L39.8 56.9411L35.6 47.0911L27.05 38.5411L17.2 34.3411L25.55 25.9411C26.0167 25.4745 26.575 25.1411 27.225 24.9411C27.875 24.7411 28.5333 24.7078 29.2 24.8411L34.15 25.8411V25.8411V25.8411C37.6167 22.3745 41.25 19.9245 45.05 18.4911C48.85 17.0578 52.7667 16.6578 56.8 17.2911V17.2911M20.75 44.8911C21.9167 43.7245 23.3417 43.1328 25.025 43.1161C26.7083 43.0995 28.1333 43.6745 29.3 44.8411C30.4667 46.0078 31.0417 47.4328 31.025 49.1161C31.0083 50.7995 30.4167 52.2245 29.25 53.3911C28.4167 54.2245 27.025 54.9411 25.075 55.5411C23.125 56.1411 20.4333 56.6745 17 57.1411C17.4667 53.7078 18 51.0161 18.6 49.0661C19.2 47.1161 19.9167 45.7245 20.75 44.8911V44.8911M23.6 47.6911C23.2667 48.0245 22.9333 48.6328 22.6 49.5161C22.2667 50.3995 22.0333 51.2911 21.9 52.1911C22.8 52.0578 23.6917 51.8328 24.575 51.5161C25.4583 51.1995 26.0667 50.8745 26.4 50.5411C26.8 50.1411 27.0167 49.6578 27.05 49.0911C27.0833 48.5245 26.9 48.0411 26.5 47.6411C26.1 47.2411 25.6167 47.0495 25.05 47.0661C24.4833 47.0828 24 47.2911 23.6 47.6911V47.6911" fill="#7F13EC"/>
</svg>
