<svg width="48" height="51" viewBox="0 0 48 51" fill="none" xmlns="http://www.w3.org/2000/svg">
<g opacity="0.5">
<path d="M31.4077 37L26.9077 32.5L31.4077 28L36.4077 32C40.9077 36 35.4077 41 31.4077 37Z" fill="#191816"/>
<path d="M30.9077 22.5C30.9077 28.299 26.2067 33 20.4077 33C14.6087 33 9.90771 28.299 9.90771 22.5C9.90771 16.701 14.6087 12 20.4077 12C26.2067 12 30.9077 16.701 30.9077 22.5ZM13.7705 22.5C13.7705 26.1656 16.7421 29.1372 20.4077 29.1372C24.0733 29.1372 27.0449 26.1656 27.0449 22.5C27.0449 18.8344 24.0733 15.8628 20.4077 15.8628C16.7421 15.8628 13.7705 18.8344 13.7705 22.5Z" fill="#191816"/>
</g>
</svg>
